<svg width="22" height="35" viewBox="0 0 22 35" fill="none" xmlns="http://www.w3.org/2000/svg">
<path d="M12.0902 0H8.07111L16.3195 16.557L12.1953 25.1925H17.055C17.7774 25.1925 18.4472 24.7748 18.7625 24.1012L21.6651 18.0119C22.0986 17.0958 22.0986 16.0181 21.6389 15.102L15.0323 1.85912C14.4807 0.714011 13.338 0 12.0902 0Z" fill="url(#paint0_linear_13_297)"/>
<path d="M15.0454 1.85913C18.3421 8.46036 18.5917 11.8149 16.3326 16.557L12.1953 25.1925H17.055C17.7773 25.1925 18.4472 24.7748 18.7624 24.1012L21.6651 18.0119C22.0985 17.0959 22.0985 16.0181 21.6388 15.102L15.0454 1.85913Z" fill="url(#paint1_linear_13_297)"/>
<path d="M9.90993 35H13.9159L5.66754 18.4565L9.79172 9.8075H4.93201C4.20963 9.8075 3.53978 10.2251 3.22455 10.8987L0.321864 16.988C-0.111569 17.9041 -0.111569 18.9819 0.348132 19.898L6.94157 33.1408C7.51948 34.2859 8.66216 35 9.90993 35Z" fill="url(#paint2_linear_13_297)"/>
<path d="M6.94157 33.1409C3.64485 26.5396 3.3953 23.1851 5.6544 18.443L9.77858 9.79407H4.91888C4.19649 9.79407 3.52664 10.2117 3.21142 10.8853L0.321864 16.9881C-0.111569 17.9042 -0.111569 18.9819 0.348132 19.898L6.94157 33.1409Z" fill="white"/>
<defs>
<linearGradient id="paint0_linear_13_297" x1="7.08603" y1="-1.6165e-07" x2="17.6933" y2="15.4459" gradientUnits="userSpaceOnUse">
<stop stop-color="white"/>
<stop offset="0.9997" stop-color="#E3F2F7"/>
</linearGradient>
<linearGradient id="paint1_linear_13_297" x1="16.0607" y1="14.337" x2="25.4273" y2="17.2939" gradientUnits="userSpaceOnUse">
<stop stop-color="white"/>
<stop offset="0.477083" stop-color="white" stop-opacity="0.4494"/>
<stop offset="1" stop-color="#EDFBFF"/>
</linearGradient>
<linearGradient id="paint2_linear_13_297" x1="10.4353" y1="35.9026" x2="6.22817" y2="13.982" gradientUnits="userSpaceOnUse">
<stop stop-color="white"/>
<stop offset="1" stop-color="#E3F2F6"/>
</linearGradient>
</defs>
</svg>
